<svg width="17" height="17" viewBox="0 0 17 17" fill="none" xmlns="http://www.w3.org/2000/svg">
<path fill-rule="evenodd" clip-rule="evenodd" d="M11.7174 5.35355C11.5222 5.15829 11.2056 5.15829 11.0103 5.35355L8.5358 7.82809L6.06126 5.35355C5.866 5.15829 5.54942 5.15829 5.35416 5.35355C5.15889 5.54882 5.1589 5.8654 5.35416 6.06066L7.82869 8.53519L5.35348 11.0104C5.15822 11.2057 5.15822 11.5223 5.35348 11.7175C5.54874 11.9128 5.86532 11.9128 6.06058 11.7175L8.5358 9.2423L11.011 11.7175C11.2063 11.9128 11.5229 11.9128 11.7181 11.7175C11.9134 11.5223 11.9134 11.2057 11.7181 11.0104L9.2429 8.53519L11.7174 6.06066C11.9127 5.8654 11.9127 5.54882 11.7174 5.35355Z" fill="#FF4C00"/>
<circle cx="8.5" cy="8.5" r="8" stroke="#FF4C00"/>
</svg>
